<svg xmlns="http://www.w3.org/2000/svg" xmlns:xlink="http://www.w3.org/1999/xlink" width="500" zoomAndPan="magnify" viewBox="0 0 375 112.499997" height="150" preserveAspectRatio="xMidYMid meet" version="1.0"><defs><g/><clipPath id="1dff84135f"><path d="M 29 9.84375 L 93 9.84375 L 93 102.429688 L 29 102.429688 Z M 29 9.84375 " clip-rule="nonzero"/></clipPath><clipPath id="81f0cd37cd"><path d="M 0.828125 44 L 9 44 L 9 68 L 0.828125 68 Z M 0.828125 44 " clip-rule="nonzero"/></clipPath><clipPath id="6173ba1f25"><path d="M 100 44 L 108.351562 44 L 108.351562 68 L 100 68 Z M 100 44 " clip-rule="nonzero"/></clipPath><clipPath id="da5dcca26f"><path d="M 151 37 L 374.167969 37 L 374.167969 75 L 151 75 Z M 151 37 " clip-rule="nonzero"/></clipPath><clipPath id="fe0e446b49"><rect x="0" width="224" y="0" height="38"/></clipPath></defs><g clip-path="url(#1dff84135f)"><path fill="#1f66ff" d="M 29.371094 74.902344 L 29.371094 37.082031 C 29.371094 33.273438 31.003906 29.777344 33.824219 27.378906 L 33.824219 14.007812 C 33.824219 11.714844 35.699219 9.839844 37.992188 9.839844 C 40.285156 9.839844 42.160156 11.714844 42.160156 14.007812 L 42.160156 24.285156 C 44.351562 24.285156 46.546875 24.863281 48.539062 26.011719 L 50.488281 27.136719 L 50.488281 22.644531 C 50.488281 20.355469 52.363281 18.480469 54.652344 18.480469 L 54.65625 18.480469 C 56.949219 18.480469 58.824219 20.355469 58.824219 22.644531 L 58.824219 31.949219 L 67.148438 36.757812 L 67.148438 14.007812 C 67.148438 11.714844 69.023438 9.84375 71.316406 9.84375 C 73.609375 9.84375 75.484375 11.71875 75.484375 14.007812 L 75.484375 41.570312 L 81.296875 44.925781 C 82.222656 45.460938 83.066406 46.097656 83.8125 46.816406 L 83.8125 28.949219 C 83.8125 26.65625 85.6875 24.78125 87.980469 24.78125 C 90.273438 24.78125 92.148438 26.65625 92.148438 28.949219 L 92.148438 83.035156 C 92.148438 85.328125 90.273438 87.203125 87.980469 87.203125 C 85.6875 87.203125 83.8125 85.328125 83.8125 83.035156 L 83.8125 65.167969 C 83.066406 65.886719 82.222656 66.523438 81.296875 67.058594 L 75.484375 70.414062 L 75.484375 97.972656 C 75.484375 100.265625 73.609375 102.140625 71.316406 102.140625 C 69.023438 102.140625 67.148438 100.265625 67.148438 97.972656 L 67.148438 75.226562 L 58.824219 80.035156 L 58.824219 89.335938 C 58.824219 91.628906 56.949219 93.503906 54.65625 93.503906 L 54.652344 93.503906 C 52.363281 93.503906 50.488281 91.628906 50.488281 89.335938 L 50.488281 84.847656 L 48.539062 85.972656 C 46.546875 87.121094 44.355469 87.699219 42.160156 87.699219 L 42.160156 97.972656 C 42.160156 100.265625 40.285156 102.140625 37.992188 102.140625 C 35.699219 102.140625 33.824219 100.265625 33.824219 97.972656 L 33.824219 84.605469 C 31.003906 82.207031 29.371094 78.710938 29.371094 74.902344 Z M 29.371094 74.902344 " fill-opacity="1" fill-rule="nonzero"/></g><path fill="#ffffff" d="M 37.699219 74.902344 L 37.699219 37.082031 C 37.699219 35.445312 38.507812 34.042969 39.925781 33.222656 L 39.957031 33.207031 L 39.992188 33.1875 L 40.058594 33.152344 L 40.058594 33.148438 L 40.09375 33.132812 L 40.125 33.113281 L 40.160156 33.097656 L 40.191406 33.082031 L 40.226562 33.0625 L 40.257812 33.046875 L 40.261719 33.046875 L 40.292969 33.03125 L 40.363281 33 L 40.394531 32.984375 L 40.398438 32.984375 L 40.429688 32.96875 L 40.460938 32.957031 L 40.464844 32.957031 L 40.5 32.941406 L 40.53125 32.929688 L 40.535156 32.929688 L 40.570312 32.914062 L 40.601562 32.902344 L 40.636719 32.886719 L 40.667969 32.875 L 40.671875 32.875 L 40.707031 32.863281 L 40.738281 32.851562 L 40.742188 32.851562 L 40.777344 32.839844 L 40.808594 32.828125 L 40.8125 32.828125 L 40.847656 32.816406 L 40.878906 32.804688 L 40.882812 32.804688 L 40.917969 32.792969 L 40.949219 32.785156 L 40.953125 32.785156 L 40.988281 32.773438 L 41.019531 32.765625 L 41.023438 32.765625 L 41.058594 32.753906 L 41.089844 32.746094 L 41.09375 32.746094 L 41.128906 32.738281 L 41.160156 32.730469 L 41.164062 32.726562 L 41.199219 32.71875 L 41.230469 32.714844 L 41.234375 32.710938 L 41.269531 32.703125 L 41.300781 32.699219 L 41.304688 32.695312 L 41.339844 32.691406 L 41.371094 32.683594 L 41.375 32.683594 L 41.410156 32.675781 L 41.441406 32.671875 L 41.445312 32.671875 L 41.484375 32.664062 L 41.511719 32.660156 L 41.519531 32.660156 L 41.554688 32.65625 L 41.582031 32.652344 L 41.589844 32.648438 L 41.625 32.644531 L 41.652344 32.640625 L 41.660156 32.640625 L 41.695312 32.636719 L 41.722656 32.632812 L 41.730469 32.632812 L 41.769531 32.628906 L 41.796875 32.628906 L 41.804688 32.625 L 41.839844 32.625 L 41.867188 32.621094 L 41.875 32.621094 L 41.910156 32.617188 L 41.980469 32.617188 L 42.007812 32.613281 L 42.160156 32.613281 C 42.917969 32.613281 43.671875 32.816406 44.375 33.226562 L 50.488281 36.753906 L 58.824219 41.566406 L 67.148438 46.375 L 75.484375 51.1875 L 77.132812 52.136719 C 78.546875 52.953125 79.359375 54.359375 79.359375 55.992188 C 79.359375 57.628906 78.546875 59.03125 77.132812 59.847656 L 75.484375 60.800781 L 67.148438 65.613281 L 58.824219 70.417969 L 50.488281 75.230469 L 44.375 78.757812 C 43.671875 79.160156 42.914062 79.367188 42.160156 79.375 L 42.125 79.375 L 42.089844 79.371094 L 41.980469 79.371094 L 41.945312 79.367188 L 41.910156 79.367188 L 41.875 79.363281 L 41.839844 79.363281 L 41.804688 79.359375 L 41.796875 79.359375 L 41.769531 79.355469 L 41.730469 79.351562 L 41.722656 79.351562 L 41.695312 79.347656 L 41.660156 79.34375 L 41.652344 79.34375 L 41.625 79.339844 L 41.589844 79.335938 L 41.582031 79.332031 L 41.554688 79.328125 L 41.519531 79.324219 L 41.511719 79.324219 L 41.484375 79.320312 L 41.445312 79.3125 L 41.441406 79.3125 L 41.410156 79.308594 L 41.375 79.300781 L 41.371094 79.300781 L 41.339844 79.292969 L 41.304688 79.285156 L 41.300781 79.285156 L 41.269531 79.277344 L 41.234375 79.269531 L 41.230469 79.269531 L 41.199219 79.265625 L 41.164062 79.253906 L 41.160156 79.253906 L 41.128906 79.246094 L 41.09375 79.238281 L 41.089844 79.238281 L 41.058594 79.230469 L 41.023438 79.21875 L 41.019531 79.21875 L 40.988281 79.210938 L 40.953125 79.199219 L 40.949219 79.199219 L 40.917969 79.191406 L 40.882812 79.179688 L 40.878906 79.179688 L 40.847656 79.167969 L 40.8125 79.15625 L 40.808594 79.15625 L 40.777344 79.144531 L 40.742188 79.132812 L 40.738281 79.132812 L 40.707031 79.121094 L 40.671875 79.109375 L 40.667969 79.109375 L 40.636719 79.097656 L 40.601562 79.082031 L 40.570312 79.070312 L 40.535156 79.054688 L 40.53125 79.054688 L 40.5 79.042969 L 40.464844 79.027344 L 40.460938 79.027344 L 40.429688 79.011719 L 40.398438 79 L 40.394531 79 L 40.363281 78.984375 L 40.292969 78.953125 L 40.261719 78.9375 L 40.257812 78.933594 L 40.226562 78.921875 L 40.191406 78.902344 L 40.160156 78.886719 L 40.125 78.871094 L 40.089844 78.851562 L 40.058594 78.835938 L 40.058594 78.832031 L 39.992188 78.796875 L 39.957031 78.777344 L 39.925781 78.757812 C 38.507812 77.941406 37.699219 76.539062 37.699219 74.902344 " fill-opacity="1" fill-rule="nonzero"/><g clip-path="url(#81f0cd37cd)"><path fill="#1f66ff" d="M 4.917969 44.046875 C 7.164062 44.046875 9 45.882812 9 48.128906 L 9 63.855469 C 9 66.101562 7.164062 67.9375 4.917969 67.9375 C 2.671875 67.9375 0.835938 66.101562 0.835938 63.855469 L 0.835938 48.128906 C 0.835938 45.882812 2.671875 44.046875 4.917969 44.046875 Z M 4.917969 44.046875 " fill-opacity="1" fill-rule="nonzero"/></g><g clip-path="url(#6173ba1f25)"><path fill="#1f66ff" d="M 104.390625 44.046875 C 102.148438 44.046875 100.308594 45.882812 100.308594 48.128906 L 100.308594 63.855469 C 100.308594 66.101562 102.148438 67.9375 104.390625 67.9375 C 106.636719 67.9375 108.472656 66.101562 108.472656 63.855469 L 108.472656 48.128906 C 108.472656 45.882812 106.636719 44.046875 104.390625 44.046875 Z M 104.390625 44.046875 " fill-opacity="1" fill-rule="nonzero"/></g><path fill="#1f66ff" d="M 21.328125 24.78125 C 23.621094 24.78125 25.496094 26.65625 25.496094 28.949219 L 25.496094 83.035156 C 25.496094 85.328125 23.621094 87.203125 21.328125 87.203125 C 19.035156 87.203125 17.160156 85.328125 17.160156 83.035156 L 17.160156 28.949219 C 17.160156 26.65625 19.035156 24.78125 21.328125 24.78125 Z M 21.328125 24.78125 " fill-opacity="1" fill-rule="nonzero"/><g clip-path="url(#da5dcca26f)"><g transform="matrix(1, 0, 0, 1, 151, 37)"><g clip-path="url(#fe0e446b49)"><g fill="#1f66ff" fill-opacity="1"><g transform="translate(1.046522, 29.209313)"><g><path d="M 2.140625 -21.40625 L 8.1875 -21.40625 L 8.1875 0 L 2.140625 0 Z M 2.140625 -21.40625 "/></g></g></g><g fill="#1f66ff" fill-opacity="1"><g transform="translate(8.108744, 29.209313)"><g><path d="M 11.921875 -21.40625 C 13.859375 -21.40625 15.539062 -21.082031 16.96875 -20.4375 C 18.394531 -19.800781 19.492188 -18.882812 20.265625 -17.6875 C 21.046875 -16.5 21.4375 -15.097656 21.4375 -13.484375 C 21.4375 -11.867188 21.046875 -10.46875 20.265625 -9.28125 C 19.492188 -8.101562 18.394531 -7.191406 16.96875 -6.546875 C 15.539062 -5.910156 13.859375 -5.59375 11.921875 -5.59375 L 8.1875 -5.59375 L 8.1875 0 L 2.140625 0 L 2.140625 -21.40625 Z M 11.5625 -10.359375 C 12.800781 -10.359375 13.734375 -10.628906 14.359375 -11.171875 C 14.992188 -11.710938 15.3125 -12.484375 15.3125 -13.484375 C 15.3125 -14.484375 14.992188 -15.257812 14.359375 -15.8125 C 13.734375 -16.363281 12.800781 -16.640625 11.5625 -16.640625 L 8.1875 -16.640625 L 8.1875 -10.359375 Z M 11.5625 -10.359375 "/></g></g></g><g fill="#1f66ff" fill-opacity="1"><g transform="translate(27.340315, 29.209313)"><g><path d="M 6.703125 -16.609375 L 0.125 -16.609375 L 0.125 -21.40625 L 19.296875 -21.40625 L 19.296875 -16.609375 L 12.75 -16.609375 L 12.75 0 L 6.703125 0 Z M 6.703125 -16.609375 "/></g></g></g><g fill="#1f66ff" fill-opacity="1"><g transform="translate(43.453105, 29.209313)"><g><path d="M 23.84375 -21.40625 L 14.671875 0 L 8.71875 0 L -0.421875 -21.40625 L 6.109375 -21.40625 L 11.921875 -7.46875 L 17.859375 -21.40625 Z M 23.84375 -21.40625 "/></g></g></g><g fill="#1f66ff" fill-opacity="1"><g transform="translate(63.571385, 29.209313)"><g/></g></g><g fill="#1f66ff" fill-opacity="1"><g transform="translate(69.165953, 29.209313)"><g><path d="M 11.5 -5.6875 L 8.1875 -5.6875 L 8.1875 0 L 2.140625 0 L 2.140625 -21.40625 L 11.921875 -21.40625 C 13.859375 -21.40625 15.539062 -21.082031 16.96875 -20.4375 C 18.394531 -19.800781 19.492188 -18.882812 20.265625 -17.6875 C 21.046875 -16.5 21.4375 -15.097656 21.4375 -13.484375 C 21.4375 -11.929688 21.070312 -10.578125 20.34375 -9.421875 C 19.625 -8.273438 18.59375 -7.378906 17.25 -6.734375 L 21.859375 0 L 15.375 0 Z M 15.3125 -13.484375 C 15.3125 -14.484375 14.992188 -15.257812 14.359375 -15.8125 C 13.734375 -16.363281 12.800781 -16.640625 11.5625 -16.640625 L 8.1875 -16.640625 L 8.1875 -10.359375 L 11.5625 -10.359375 C 12.800781 -10.359375 13.734375 -10.628906 14.359375 -11.171875 C 14.992188 -11.710938 15.3125 -12.484375 15.3125 -13.484375 Z M 15.3125 -13.484375 "/></g></g></g><g fill="#1f66ff" fill-opacity="1"><g transform="translate(88.489256, 29.209313)"><g><path d="M 19.328125 -4.671875 L 19.328125 0 L 2.140625 0 L 2.140625 -21.40625 L 18.921875 -21.40625 L 18.921875 -16.71875 L 8.140625 -16.71875 L 8.140625 -13.125 L 17.640625 -13.125 L 17.640625 -8.59375 L 8.140625 -8.59375 L 8.140625 -4.671875 Z M 19.328125 -4.671875 "/></g></g></g><g fill="#1f66ff" fill-opacity="1"><g transform="translate(105.733371, 29.209313)"><g><path d="M 9.65625 0.421875 C 7.925781 0.421875 6.242188 0.207031 4.609375 -0.21875 C 2.984375 -0.644531 1.660156 -1.210938 0.640625 -1.921875 L 2.625 -6.390625 C 3.582031 -5.753906 4.691406 -5.242188 5.953125 -4.859375 C 7.222656 -4.472656 8.46875 -4.28125 9.6875 -4.28125 C 12.007812 -4.28125 13.171875 -4.863281 13.171875 -6.03125 C 13.171875 -6.632812 12.835938 -7.082031 12.171875 -7.375 C 11.515625 -7.675781 10.453125 -7.988281 8.984375 -8.3125 C 7.378906 -8.664062 6.035156 -9.039062 4.953125 -9.4375 C 3.867188 -9.832031 2.941406 -10.46875 2.171875 -11.34375 C 1.398438 -12.21875 1.015625 -13.398438 1.015625 -14.890625 C 1.015625 -16.191406 1.367188 -17.367188 2.078125 -18.421875 C 2.796875 -19.472656 3.863281 -20.300781 5.28125 -20.90625 C 6.695312 -21.519531 8.429688 -21.828125 10.484375 -21.828125 C 11.890625 -21.828125 13.273438 -21.671875 14.640625 -21.359375 C 16.015625 -21.046875 17.21875 -20.582031 18.25 -19.96875 L 16.390625 -15.46875 C 14.347656 -16.570312 12.367188 -17.125 10.453125 -17.125 C 9.253906 -17.125 8.378906 -16.941406 7.828125 -16.578125 C 7.273438 -16.222656 7 -15.765625 7 -15.203125 C 7 -14.628906 7.320312 -14.195312 7.96875 -13.90625 C 8.625 -13.625 9.675781 -13.332031 11.125 -13.03125 C 12.757812 -12.675781 14.109375 -12.300781 15.171875 -11.90625 C 16.242188 -11.507812 17.171875 -10.878906 17.953125 -10.015625 C 18.742188 -9.148438 19.140625 -7.972656 19.140625 -6.484375 C 19.140625 -5.203125 18.78125 -4.039062 18.0625 -3 C 17.351562 -1.957031 16.285156 -1.125 14.859375 -0.5 C 13.429688 0.113281 11.695312 0.421875 9.65625 0.421875 Z M 9.65625 0.421875 "/></g></g></g><g fill="#1f66ff" fill-opacity="1"><g transform="translate(122.213076, 29.209313)"><g><path d="M 6.703125 -16.609375 L 0.125 -16.609375 L 0.125 -21.40625 L 19.296875 -21.40625 L 19.296875 -16.609375 L 12.75 -16.609375 L 12.75 0 L 6.703125 0 Z M 6.703125 -16.609375 "/></g></g></g><g fill="#1f66ff" fill-opacity="1"><g transform="translate(138.325866, 29.209313)"><g><path d="M 11.5 -5.6875 L 8.1875 -5.6875 L 8.1875 0 L 2.140625 0 L 2.140625 -21.40625 L 11.921875 -21.40625 C 13.859375 -21.40625 15.539062 -21.082031 16.96875 -20.4375 C 18.394531 -19.800781 19.492188 -18.882812 20.265625 -17.6875 C 21.046875 -16.5 21.4375 -15.097656 21.4375 -13.484375 C 21.4375 -11.929688 21.070312 -10.578125 20.34375 -9.421875 C 19.625 -8.273438 18.59375 -7.378906 17.25 -6.734375 L 21.859375 0 L 15.375 0 Z M 15.3125 -13.484375 C 15.3125 -14.484375 14.992188 -15.257812 14.359375 -15.8125 C 13.734375 -16.363281 12.800781 -16.640625 11.5625 -16.640625 L 8.1875 -16.640625 L 8.1875 -10.359375 L 11.5625 -10.359375 C 12.800781 -10.359375 13.734375 -10.628906 14.359375 -11.171875 C 14.992188 -11.710938 15.3125 -12.484375 15.3125 -13.484375 Z M 15.3125 -13.484375 "/></g></g></g><g fill="#1f66ff" fill-opacity="1"><g transform="translate(157.649169, 29.209313)"><g><path d="M 19.328125 -4.671875 L 19.328125 0 L 2.140625 0 L 2.140625 -21.40625 L 18.921875 -21.40625 L 18.921875 -16.71875 L 8.140625 -16.71875 L 8.140625 -13.125 L 17.640625 -13.125 L 17.640625 -8.59375 L 8.140625 -8.59375 L 8.140625 -4.671875 Z M 19.328125 -4.671875 "/></g></g></g><g fill="#1f66ff" fill-opacity="1"><g transform="translate(174.893274, 29.209313)"><g><path d="M 16.484375 -4.15625 L 7.4375 -4.15625 L 5.75 0 L -0.421875 0 L 9.015625 -21.40625 L 14.984375 -21.40625 L 24.46875 0 L 18.15625 0 Z M 14.703125 -8.625 L 11.953125 -15.46875 L 9.203125 -8.625 Z M 14.703125 -8.625 "/></g></g></g><g fill="#1f66ff" fill-opacity="1"><g transform="translate(195.623078, 29.209313)"><g><path d="M 21.46875 0 L 21.40625 -11.34375 L 15.90625 -2.109375 L 13.203125 -2.109375 L 7.734375 -11.03125 L 7.734375 0 L 2.140625 0 L 2.140625 -21.40625 L 7.125 -21.40625 L 14.640625 -9.046875 L 21.984375 -21.40625 L 26.96875 -21.40625 L 27.03125 0 Z M 21.46875 0 "/></g></g></g></g></g></g><path stroke-linecap="round" transform="matrix(0, 0.746681, -0.746681, 0, 132.945906, 9.846861)" fill="none" stroke-linejoin="miter" d="M 2.501714 2.501443 L 121.136028 2.501443 " stroke="#1f66ff" stroke-width="5" stroke-opacity="1" stroke-miterlimit="4"/></svg>